<svg width="1200" height="800" viewBox="0 0 1200 800" fill="none" xmlns="http://www.w3.org/2000/svg">
  <defs>
    <linearGradient id="bg" x1="0" y1="0" x2="1" y2="1">
      <stop offset="0%" stop-color="#0B1F2A" />
      <stop offset="100%" stop-color="#0F5C66" />
    </linearGradient>
    <linearGradient id="body" x1="0" y1="0" x2="1" y2="1">
      <stop offset="0%" stop-color="#9EE0D8" />
      <stop offset="100%" stop-color="#5CA8A3" />
    </linearGradient>
  </defs>
  <rect width="1200" height="800" fill="url(#bg)" />
  <circle cx="620" cy="400" r="260" fill="url(#body)" />
  <ellipse cx="600" cy="430" rx="180" ry="110" fill="#AEDBD5" />
  <ellipse cx="620" cy="350" rx="85" ry="100" fill="#7FC3BB" />
  <circle cx="550" cy="320" r="24" fill="#FFFFFF" opacity="0.8" />
  <circle cx="690" cy="320" r="24" fill="#FFFFFF" opacity="0.8" />
  <circle cx="550" cy="320" r="10" fill="#1B2D31" />
  <circle cx="690" cy="320" r="10" fill="#1B2D31" />
  <path d="M545 340 C550 360, 590 360, 595 340" stroke="#1B2D31" stroke-width="10" stroke-linecap="round" fill="none" />
  <g opacity="0.9">
    <ellipse cx="450" cy="360" rx="22" ry="14" fill="#56A6A1" />
    <ellipse cx="760" cy="360" rx="22" ry="14" fill="#56A6A1" />
    <ellipse cx="520" cy="300" rx="26" ry="12" fill="#56A6A1" transform="rotate(-30 520 300)" />
    <ellipse cx="700" cy="290" rx="26" ry="12" fill="#56A6A1" transform="rotate(30 700 290)" />
    <ellipse cx="500" cy="420" rx="32" ry="16" fill="#56A6A1" transform="rotate(-15 500 420)" />
    <ellipse cx="735" cy="420" rx="32" ry="16" fill="#56A6A1" transform="rotate(15 735 420)" />
  </g>
  <path d="M360 640 C420 760, 620 760, 760 640" fill="#156270" opacity="0.6" />
  <circle cx="230" cy="180" r="20" fill="#9EE0D8" opacity="0.8" />
  <circle cx="200" cy="260" r="14" fill="#9EE0D8" opacity="0.8" />
  <circle cx="1100" cy="220" r="24" fill="#9EE0D8" opacity="0.8" />
  <circle cx="1020" cy="460" r="18" fill="#9EE0D8" opacity="0.8" />
</svg>
