<svg width="640" height="480" viewBox="0 0 640 480" fill="none" xmlns="http://www.w3.org/2000/svg">
  <defs>
    <linearGradient id="g3" x1="0" y1="0" x2="1" y2="1">
      <stop offset="0%" stop-color="#7FE1CC" />
      <stop offset="100%" stop-color="#3A8B88" />
    </linearGradient>
  </defs>
  <rect width="640" height="480" rx="32" fill="#0A252E" />
  <circle cx="320" cy="260" r="150" fill="url(#g3)" />
  <path d="M240 280 C230 300, 260 340, 310 360" stroke="#0C1F21" stroke-width="18" stroke-linecap="round" fill="none" />
  <path d="M400 280 C410 300, 380 340, 330 360" stroke="#0C1F21" stroke-width="18" stroke-linecap="round" fill="none" />
  <path d="M300 220 C325 200, 355 200, 380 220" stroke="#0C1F21" stroke-width="16" stroke-linecap="round" fill="none" />
  <circle cx="270" cy="240" r="20" fill="#0C1F21" />
  <circle cx="370" cy="240" r="20" fill="#0C1F21" />
  <path d="M240 190 C280 160, 360 160, 400 190" fill="#5DB9B2" />
  <path d="M210 330 C230 340, 250 360, 270 375" stroke="#0C1F21" stroke-width="16" stroke-linecap="round" fill="none" />
  <path d="M430 330 C410 340, 390 360, 370 375" stroke="#0C1F21" stroke-width="16" stroke-linecap="round" fill="none" />
</svg>
